ffmpeg version 8.0.1 Copyright (c) 2000-2025 the FFmpeg developers
  built with Apple clang version 17.0.0 (clang-1700.4.4.1)
  configuration: --prefix=/opt/homebrew/Cellar/ffmpeg/8.0.1 --enable-shared --enable-pthreads --enable-version3 --cc=clang --host-cflags= --host-ldflags= --enable-ffplay --enable-gnutls --enable-gpl --enable-libaom --enable-libaribb24 --enable-libbluray --enable-libdav1d --enable-libharfbuzz --enable-libjxl --enable-libmp3lame --enable-libopus --enable-librav1e --enable-librist --enable-librubberband --enable-libsnappy --enable-libsrt --enable-libssh --enable-libsvtav1 --enable-libtesseract --enable-libtheora --enable-libvidstab --enable-libvmaf --enable-libvorbis --enable-libvpx --enable-libwebp --enable-libx264 --enable-libx265 --enable-libxml2 --enable-libxvid --enable-lzma --enable-libfontconfig --enable-libfreetype --enable-frei0r --enable-libass --enable-libopencore-amrnb --enable-libopencore-amrwb --enable-libopenjpeg --enable-libspeex --enable-libsoxr --enable-libzmq --enable-libzimg --disable-libjack --disable-indev=jack --enable-videotoolbox --enable-audiotoolbox --enable-neon
  libavutil      60.  8.100 / 60.  8.100
  libavcodec     62. 11.100 / 62. 11.100
  libavformat    62.  3.100 / 62.  3.100
  libavdevice    62.  1.100 / 62.  1.100
  libavfilter    11.  4.100 / 11.  4.100
  libswscale      9.  1.100 /  9.  1.100
  libswresample   6.  1.100 /  6.  1.100
[aist#0:0/pcm_s16le @ 0xa4cc30180] Guessed Channel Layout: mono
Input #0, wav, from 'audio.wav':
  Duration: 00:00:20.89, bitrate: 384 kb/s
  Stream #0:0: Audio: pcm_s16le ([1][0][0][0] / 0x0001), 24000 Hz, mono, s16, 384 kb/s
Stream mapping:
  Stream #0:0 -> #0:0 (pcm_s16le (native) -> pcm_s16le (native))
Press [q] to stop, [?] for help
Output #0, null, to 'pipe:':
  Metadata:
    encoder         : Lavf62.3.100
  Stream #0:0: Audio: pcm_s16le, 24000 Hz, mono, s16, 384 kb/s
    Metadata:
      encoder         : Lavc62.11.100 pcm_s16le
[silencedetect @ 0xa4d060420] silence_start: 3.996333
[silencedetect @ 0xa4d060420] silence_end: 4.870792 | silence_duration: 0.874458
[silencedetect @ 0xa4d060420] silence_start: 9.283042
[silencedetect @ 0xa4d060420] silence_end: 10.278417 | silence_duration: 0.995375
[silencedetect @ 0xa4d060420] silence_start: 13.3385
[silencedetect @ 0xa4d060420] silence_end: 14.293625 | silence_duration: 0.955125
[silencedetect @ 0xa4d060420] silence_start: 17.640917
[silencedetect @ 0xa4d060420] silence_end: 18.216167 | silence_duration: 0.57525
[silencedetect @ 0xa4d060420] silence_start: 19.399458
[silencedetect @ 0xa4d060420] silence_end: 19.92875 | silence_duration: 0.529292
[out#0/null @ 0xa4cc64180] video:0KiB audio:979KiB subtitle:0KiB other streams:0KiB global headers:0KiB muxing overhead: unknown
size=N/A time=00:00:20.89 bitrate=N/A speed=4.52e+03x elapsed=0:00:00.00    
